<?xml version="1.0" encoding="UTF-8" standalone="no"?>
<!DOCTYPE svg PUBLIC "-//W3C//DTD SVG 1.1//EN" "http://www.w3.org/Graphics/SVG/1.1/DTD/svg11.dtd">
<svg width="100%" height="100%" viewBox="0 0 1024 187" version="1.1" xmlns="http://www.w3.org/2000/svg" xmlns:xlink="http://www.w3.org/1999/xlink" xml:space="preserve" xmlns:serif="http://www.serif.com/" style="fill-rule:evenodd;clip-rule:evenodd;stroke-linejoin:round;stroke-miterlimit:2;">
    <g transform="matrix(1.59147,0,0,1.59147,-332.623,-1390.32)">
        <g transform="matrix(0.117761,0,0,0.117761,630.823,910.638)">
            <g transform="matrix(326.675,0,0,326.675,836.429,617)">
            </g>
            <text x="417.631px" y="617px" style="font-family:'Montserrat-ExtraBold', 'Montserrat';font-weight:800;font-size:326.675px;fill:rgb(40,40,40);">b<tspan x="633.89px " y="617px ">y</tspan></text>
        </g>
        <g transform="matrix(0.171346,0,0,0.171346,687.426,877.577)">
            <g transform="matrix(326.675,0,0,326.675,982.289,617)">
            </g>
            <text x="271.771px" y="617px" style="font-family:'Montserrat-ExtraBold', 'Montserrat';font-weight:800;font-size:326.675px;fill:rgb(40,40,40);">L<tspan x="460.262px 551.731px 685.668px 777.137px " y="617px 617px 617px 617px ">iria</tspan></text>
        </g>
        <g transform="matrix(102.85,0,0,102.85,-25312.1,-99216.4)">
            <g transform="matrix(1,0,0,1,0.097229,0)">
                <path d="M248.869,974.27L249.15,974.27L248.728,973.317L248.463,973.317L248.042,974.27L248.317,974.27L248.392,974.085L248.795,974.085L248.869,974.27ZM248.471,973.886L248.593,973.581L248.716,973.886L248.471,973.886Z" style="fill:rgb(40,40,40);fill-rule:nonzero;"/>
            </g>
            <path d="M249.699,973.532L249.513,973.983L249.336,973.532L249.071,973.532L249.374,974.27L249.641,974.27L249.946,973.532L249.699,973.532Z" style="fill:rgb(40,40,40);fill-rule:nonzero;"/>
            <path d="M250.282,973.52C250.166,973.52 250.041,973.55 249.957,973.606L250.044,973.781C250.094,973.742 250.173,973.717 250.244,973.717C250.346,973.717 250.396,973.76 250.4,973.834L250.253,973.834C250.025,973.834 249.925,973.919 249.925,974.055C249.925,974.183 250.023,974.282 250.2,974.282C250.308,974.282 250.381,974.245 250.418,974.175L250.418,974.27L250.659,974.27L250.659,973.86C250.659,973.626 250.521,973.52 250.282,973.52ZM250.272,974.119C250.211,974.119 250.176,974.088 250.176,974.044C250.176,973.999 250.206,973.969 250.289,973.969L250.4,973.969L250.4,974.033C250.38,974.092 250.329,974.119 250.272,974.119Z" style="fill:rgb(40,40,40);fill-rule:nonzero;"/>
            <path d="M251.222,974.059C251.2,974.074 251.172,974.082 251.143,974.082C251.097,974.082 251.065,974.052 251.065,973.998L251.065,973.753L251.234,973.753L251.234,973.56L251.065,973.56L251.065,973.368L250.807,973.368L250.807,973.56L250.699,973.56L250.699,973.753L250.807,973.753L250.807,974C250.807,974.19 250.917,974.282 251.106,974.282C251.174,974.282 251.241,974.269 251.286,974.24L251.222,974.059Z" style="fill:rgb(40,40,40);fill-rule:nonzero;"/>
            <g transform="matrix(1,0,0,1,0.0194458,0)">
                <path d="M251.469,973.451C251.565,973.451 251.627,973.391 251.627,973.309C251.627,973.232 251.565,973.176 251.469,973.176C251.374,973.176 251.312,973.236 251.312,973.313C251.312,973.391 251.374,973.451 251.469,973.451ZM251.34,974.27L251.599,974.27L251.599,973.532L251.34,973.532L251.34,974.27Z" style="fill:rgb(82,82,82);fill-rule:nonzero;"/>
            </g>
            <g transform="matrix(1,0,0,1,0.0388916,0)">
                <path d="M252.091,974.282C252.335,974.282 252.508,974.123 252.508,973.9C252.508,973.678 252.335,973.52 252.091,973.52C251.85,973.52 251.675,973.678 251.675,973.9C251.675,974.123 251.85,974.282 252.091,974.282ZM252.091,974.077C252.004,974.077 251.936,974.013 251.936,973.9C251.936,973.788 252.004,973.726 252.091,973.726C252.18,973.726 252.246,973.788 252.246,973.9C252.246,974.013 252.18,974.077 252.091,974.077Z" style="fill:rgb(82,82,82);fill-rule:nonzero;"/>
            </g>
        </g>
    </g>
</svg>
